<svg width="2555" height="2555" viewBox="0 0 2555 2555" fill="none" xmlns="http://www.w3.org/2000/svg">
<path d="M2554.26 0C2386.55 -5.71858e-06 2220.47 33.0341 2065.53 97.2158C1910.58 161.398 1769.79 255.47 1651.19 374.063C1532.6 492.655 1438.53 633.445 1374.35 788.394C1310.16 943.342 1277.13 1109.42 1277.13 1277.13H1830.95C1830.95 1182.14 1849.66 1088.09 1886.01 1000.33C1922.36 912.574 1975.64 832.837 2042.8 765.671C2109.97 698.505 2189.71 645.226 2277.46 608.876C2365.22 572.526 2459.27 553.817 2554.26 553.817V0Z" fill="#CEC199"/>
<path d="M2554.26 1277.13C2386.55 1277.13 2220.47 1310.16 2065.53 1374.35C1910.58 1438.53 1769.79 1532.6 1651.19 1651.19C1532.6 1769.79 1438.53 1910.58 1374.35 2065.52C1310.16 2220.47 1277.13 2386.55 1277.13 2554.26H1830.95C1830.95 2459.27 1849.66 2365.22 1886.01 2277.46C1922.36 2189.7 1975.64 2109.97 2042.8 2042.8C2109.97 1975.64 2189.71 1922.36 2277.46 1886.01C2365.22 1849.66 2459.27 1830.95 2554.26 1830.95V1277.13Z" fill="#CEC199"/>
<path d="M1277.13 0C1109.42 -7.33106e-06 943.342 33.034 788.394 97.2158C633.445 161.398 492.655 255.47 374.062 374.063C255.47 492.655 161.398 633.445 97.2158 788.394C33.034 943.342 0 1109.42 0 1277.13H553.817C553.817 1182.14 572.526 1088.09 608.876 1000.33C645.226 912.574 698.505 832.837 765.671 765.671C832.837 698.505 912.574 645.226 1000.33 608.876C1088.09 572.526 1182.14 553.817 1277.13 553.817V0Z" fill="#CEC199"/>
<path d="M0.00195312 2554.26C167.717 2554.26 333.79 2521.23 488.738 2457.04C643.687 2392.86 784.477 2298.79 903.069 2180.2C1021.66 2061.6 1115.74 1920.81 1179.92 1765.87C1244.1 1610.92 1277.13 1444.84 1277.13 1277.13H723.315C723.315 1372.12 704.606 1466.17 668.256 1553.93C631.906 1641.69 578.628 1721.42 511.462 1788.59C444.296 1855.75 364.558 1909.03 276.802 1945.38C189.045 1981.73 94.9887 2000.44 0.00195312 2000.44V2554.26Z" fill="#CEC199"/>
</svg>
